HIERARCHY
ROOT SimulationBone
{
	OFFSET 0.000000 0.000000 0.000000
	CHANNELS 6 Xposition Yposition Zposition Zrotation Yrotation Xrotation 
	JOINT Hips
	{
		OFFSET 0.000000 0.000000 0.000000
		CHANNELS 6 Xposition Yposition Zposition Zrotation Yrotation Xrotation 
		JOINT RightUpLeg
		{
			OFFSET 0.103458 1.857835 10.548497
			CHANNELS 3 Zrotation Yrotation Xrotation
			JOINT RightLeg
			{
				OFFSET 43.500000 -0.000034 -0.000013
				CHANNELS 3 Zrotation Yrotation Xrotation
				JOINT RightFoot
				{
					OFFSET 42.372192 0.000011 0.000010
					CHANNELS 3 Zrotation Yrotation Xrotation
					JOINT RightToe
					{
						OFFSET 17.299994 -0.000002 -0.000009
						CHANNELS 3 Zrotation Yrotation Xrotation
						End Site
						{
							OFFSET 0.000000 0.000000 0.000000
						}
					}
				}
			}
		}
		JOINT LeftUpLeg
		{
			OFFSET 0.103456 1.857832 -10.548508
			CHANNELS 3 Zrotation Yrotation Xrotation
			JOINT LeftLeg
			{
				OFFSET 43.500038 -0.000027 0.000004
				CHANNELS 3 Zrotation Yrotation Xrotation
				JOINT LeftFoot
				{
					OFFSET 42.372261 -0.000011 0.000014
					CHANNELS 3 Zrotation Yrotation Xrotation
					JOINT LeftToe
					{
						OFFSET 17.299995 -0.000004 0.000011
						CHANNELS 3 Zrotation Yrotation Xrotation
						End Site
						{
							OFFSET 0.000000 0.000000 0.000000
						}
					}
				}
			}
		}
		JOINT Spine
		{
			OFFSET 6.901970 -2.603727 -0.000002
			CHANNELS 3 Zrotation Yrotation Xrotation
			JOINT Spine1
			{
				OFFSET 12.588097 -0.000001 0.000008
				CHANNELS 3 Zrotation Yrotation Xrotation
				JOINT Spine2
				{
					OFFSET 12.343203 0.000000 -0.000005
					CHANNELS 3 Zrotation Yrotation Xrotation
					JOINT Neck
					{
						OFFSET 25.832903 -0.000002 -0.000005
						CHANNELS 3 Zrotation Yrotation Xrotation
						JOINT Head
						{
							OFFSET 11.766603 0.000011 -0.000000
							CHANNELS 3 Zrotation Yrotation Xrotation
							End Site
							{
								OFFSET 0.000000 0.000000 0.000000
							}
						}
					}
					JOINT RightShoulder
					{
						OFFSET 19.745899 -1.480377 6.000100
						CHANNELS 3 Zrotation Yrotation Xrotation
						JOINT RightArm
						{
							OFFSET 11.284134 -0.000021 -0.000017
							CHANNELS 3 Zrotation Yrotation Xrotation
							JOINT RightForeArm
							{
								OFFSET 33.000053 0.000002 0.000032
								CHANNELS 3 Zrotation Yrotation Xrotation
								JOINT RightHand
								{
									OFFSET 25.200005 0.000020 0.000008
									CHANNELS 3 Zrotation Yrotation Xrotation
									End Site
									{
										OFFSET 0.000000 0.000000 0.000000
									}
								}
							}
						}
					}
					JOINT LeftShoulder
					{
						OFFSET 19.746092 -1.480377 -6.000073
						CHANNELS 3 Zrotation Yrotation Xrotation
						JOINT LeftArm
						{
							OFFSET 11.284133 -0.000016 -0.000019
							CHANNELS 3 Zrotation Yrotation Xrotation
							JOINT LeftForeArm
							{
								OFFSET 33.000092 0.000022 0.000006
								CHANNELS 3 Zrotation Yrotation Xrotation
								JOINT LeftHand
								{
									OFFSET 25.199783 0.000138 0.000434
									CHANNELS 3 Zrotation Yrotation Xrotation
									End Site
									{
										OFFSET 0.000000 0.000000 0.000000
									}
								}
							}
						}
					}
				}
			}
		}
	}
}
MOTION
Frames: 9
Frame Time: 0.016667
176.229923 0.000000 -422.960371 180.000000 -7.592771 180.000000 -22.606484 69.236794 2.535341 54.943315 2.126582 179.672482 129.921904 -28.401707 -166.448677 -64.626614 3.949726 6.231454 113.950975 -2.872282 -31.393990 21.454558 0.003107 0.000017 118.222801 26.744797 168.500835 -109.923704 -1.824324 -4.266747 99.189256 3.738663 8.892706 21.454539 -0.003091 0.000000 16.967076 -0.468535 -1.420610 23.929803 -0.633376 -2.907274 23.612126 -0.651047 -2.903419 -23.501300 -11.328470 4.813910 -48.738115 15.099202 -11.129670 111.529807 -74.054218 68.215342 -28.062639 -1.748006 26.297192 -18.997155 -17.227419 1.226795 9.854070 -7.045047 5.405498 -161.605675 79.405424 20.226816 13.697358 -49.722523 -41.178062 -47.646985 18.433969 -1.903902 -12.386491 14.306050 -5.359138 
172.669082 0.000000 -425.471903 180.000000 -4.777483 180.000000 -23.236054 69.124941 2.602839 55.940447 4.252086 -179.267859 134.899982 -30.926460 -167.437831 -61.261076 4.156323 5.636469 113.167914 -2.655132 -32.585104 21.454557 0.003108 0.000017 113.325935 27.573583 165.578662 -106.418935 -1.630445 -3.447109 99.324469 3.178544 8.592517 21.454547 -0.003090 -0.000002 16.964164 -0.120871 -1.431627 23.914883 0.056556 -2.857188 23.597215 0.039175 -2.857493 -22.469646 -8.270181 5.527253 -48.706288 13.113180 -7.540420 115.113310 -75.503409 64.483713 -24.387710 3.165273 25.422384 -21.929404 -16.458135 1.226141 9.063842 -2.887560 5.811973 -156.999223 80.450910 24.891056 19.651838 -48.565838 -43.443487 -50.212863 17.483887 -1.934616 -12.167049 12.937685 -3.866852 
169.172296 0.000000 -428.008959 180.000000 -2.198670 180.000000 -23.583734 69.233292 2.767797 57.186197 6.100396 -178.941379 141.265468 -33.816699 -169.405384 -57.092413 3.885078 4.654211 111.176498 -2.523709 -33.679464 21.454558 0.003109 0.000017 109.720547 27.608903 163.821527 -100.908503 -1.127316 -2.129222 99.292337 2.375165 9.474797 21.454550 -0.003091 -0.000002 17.017205 0.098664 -1.384727 24.015988 0.482322 -2.718786 23.698274 0.465768 -2.721661 -21.395781 -5.512159 6.097647 -48.514775 11.634709 -4.621096 121.178398 -76.697719 58.275682 -21.104557 8.260117 28.017111 -23.557696 -16.512544 1.241534 8.469802 -1.368290 7.026610 -154.874454 81.141657 27.032342 21.946713 -46.772984 -44.458271 -52.253661 17.222161 -1.973125 -11.702568 12.168174 -3.704447 
165.726961 0.000000 -430.561159 180.000000 0.136921 180.000000 -23.621846 69.433020 2.988263 58.429919 7.665381 -179.102293 148.644196 -36.572850 -172.292434 -52.399633 3.395840 3.428846 107.820266 -2.678985 -34.290699 21.454558 0.003110 0.000017 107.223366 27.305757 163.277974 -93.985108 -0.498669 -0.710463 98.913887 1.582592 11.078719 21.454549 -0.003092 -0.000001 17.048864 0.254537 -1.293657 24.076827 0.772400 -2.506094 23.759042 0.757123 -2.510725 -20.292350 -3.220744 6.581483 -48.201422 10.359202 -2.164914 128.900099 -77.369262 50.434570 -17.698424 13.559565 32.276430 -24.146684 -16.853854 1.271268 8.085015 -1.686171 8.427430 -155.177339 81.676675 26.713746 21.385933 -44.764208 -44.249757 -53.730074 17.360235 -2.028684 -11.106717 11.927055 -4.020223 
162.320473 0.000000 -433.118124 180.000000 2.228342 180.000000 -23.328968 69.595299 3.229689 59.426569 8.953046 -179.524272 156.491681 -38.743612 -175.827729 -47.461799 2.917627 2.134036 102.930000 -3.254203 -33.998051 21.454558 0.003110 0.000017 105.578946 27.048293 163.911071 -86.241902 0.183287 0.392510 98.032755 1.071199 12.944781 21.454550 -0.003093 0.000000 16.981708 0.411457 -1.172592 23.941152 1.056397 -2.234785 23.623273 1.042752 -2.241136 -19.168921 -1.565731 7.025697 -47.848111 8.990046 0.027318 136.470782 -77.360534 42.786347 -13.922400 19.278593 36.469313 -23.949567 -16.946698 1.274879 7.921282 -3.055109 9.359277 -157.446963 82.200403 24.405185 18.792414 -42.830934 -42.858330 -54.592731 17.611020 -2.079828 -10.522040 12.133252 -3.964608 
158.940226 0.000000 -435.669474 180.000000 4.079097 180.000000 -22.694415 69.616862 3.462207 60.045070 9.943499 -179.985867 164.091542 -39.965286 -179.499066 -42.729962 2.694186 0.798694 96.357338 -4.161223 -32.690116 21.454555 0.003109 0.000017 104.586220 27.133687 165.549863 -78.297270 0.923790 0.739319 96.588278 1.164684 14.917965 21.454552 -0.003093 0.000000 16.769854 0.620206 -1.042495 23.516450 1.439184 -1.937338 23.198450 1.427327 -1.946006 -18.056613 -0.681242 7.449888 -47.513078 7.318667 2.089015 142.160850 -76.714122 37.071747 -9.807691 25.652716 39.421000 -23.260369 -16.419547 1.229130 8.010041 -4.626909 9.393385 -161.180307 82.771341 20.619057 14.798813 -41.096608 -40.294396 -54.811944 17.772678 -2.099295 -10.012054 12.691690 -2.938650 
155.573616 0.000000 -438.204829 180.000000 5.695896 180.000000 -21.749453 69.496681 3.654524 60.609186 10.495848 179.768866 170.709664 -39.865293 177.367869 -39.367611 3.189374 -1.217722 88.148986 -4.959873 -31.702800 21.454555 0.003107 0.000018 104.310190 27.669908 167.584360 -70.944928 1.584413 -0.201719 94.823754 2.398663 18.082782 21.454555 -0.003092 0.000000 16.493040 0.874182 -0.949784 22.962027 1.919315 -1.707445 22.643892 1.908837 -1.719020 -17.076513 -0.547735 7.793779 -47.040475 5.460544 3.909767 146.362714 -75.638952 32.880374 -5.567113 32.215218 42.075132 -22.535258 -15.558778 1.166450 8.213600 -5.286335 9.099241 -165.856129 83.186510 15.887572 9.568823 -39.302677 -36.820606 -54.459990 17.979950 -2.100103 -9.335762 13.507170 -1.343144 
152.208039 0.000000 -440.713810 180.000000 7.087571 180.000000 -20.590637 69.244933 3.763236 61.497502 10.511881 179.949196 175.563386 -38.396649 175.472846 -38.852908 4.539534 -3.939102 79.170752 -5.646077 -31.871302 21.454560 0.003105 0.000018 104.977725 28.627151 169.457873 -64.782083 2.113857 -2.592179 93.051522 5.012734 22.980986 21.454554 -0.003092 0.000000 16.254738 1.158197 -0.919794 22.484449 2.472923 -1.597328 22.166167 2.463100 -1.612254 -16.256257 -0.986271 7.966298 -46.335005 3.519245 5.391786 149.791546 -74.331361 29.475657 -1.246133 38.362362 45.621236 -22.211674 -14.773674 1.113434 8.275928 -4.363988 9.065379 -170.307029 83.179873 11.388155 3.254590 -37.009780 -32.823798 -53.653331 18.388619 -2.100098 -8.356268 14.439190 0.241864 
148.830890 0.000000 -443.186037 180.000000 8.264207 180.000000 -19.533269 68.814377 3.677310 62.872381 10.238282 -179.529374 178.031544 -36.517001 175.105532 -42.903347 5.396872 -4.350594 73.351026 -6.587116 -30.280813 21.454565 0.003105 0.000018 107.162368 29.682697 171.213172 -59.348353 2.592892 -4.762088 90.980065 7.578206 26.776162 21.454553 -0.003092 0.000000 16.129751 1.483167 -0.870528 22.235160 3.105819 -1.440241 21.916670 3.096932 -1.459002 -15.161732 -1.343410 7.823417 -45.845161 1.263890 6.763892 151.893201 -73.131897 27.405715 3.357624 44.204355 50.300941 -22.513837 -14.302791 1.086471 7.801432 -3.232387 8.881518 -173.159064 82.429063 8.499506 -3.663374 -33.486272 -28.803631 -52.582719 18.903539 -2.097405 -7.637005 15.187644 1.487996 
